<svg width="25" height="25" viewBox="0 0 25 25" fill="none" xmlns="http://www.w3.org/2000/svg">
<path d="M22.5441 11.4393H6.21873L15.9899 2.95715C16.1462 2.82043 16.0513 2.56653 15.8449 2.56653H13.3755C13.2667 2.56653 13.1635 2.60559 13.0826 2.67535L2.53849 11.8243C2.44192 11.9081 2.36447 12.0115 2.31139 12.1278C2.25831 12.2441 2.23083 12.3704 2.23083 12.4982C2.23083 12.626 2.25831 12.7523 2.31139 12.8685C2.36447 12.9848 2.44192 13.0883 2.53849 13.172L13.144 22.3768C13.1858 22.4131 13.236 22.4326 13.289 22.4326H15.8421C16.0485 22.4326 16.1434 22.1759 15.9872 22.042L6.21873 13.5598H22.5441C22.6668 13.5598 22.7673 13.4594 22.7673 13.3366V11.6625C22.7673 11.5397 22.6668 11.4393 22.5441 11.4393Z" fill="white"/>
</svg>
