<svg width="12" height="11" viewBox="0 0 12 11" fill="none" xmlns="http://www.w3.org/2000/svg">
<path fill-rule="evenodd" clip-rule="evenodd" d="M0.53125 0.0308228H10.5938C10.8357 0.0308228 11.0312 0.226331 11.0312 0.468323V10.5308C11.0312 10.7728 10.8357 10.9683 10.5938 10.9683H0.53125C0.289258 10.9683 0.09375 10.7728 0.09375 10.5308V0.468323C0.09375 0.226331 0.289258 0.0308228 0.53125 0.0308228ZM1.07812 9.98395H10.0469V1.0152H1.07812V9.98395ZM4.63856 7.62507C4.5771 7.5935 4.52405 7.54773 4.48381 7.49156L2.78029 5.12906C2.72834 5.0566 2.78029 4.95543 2.86916 4.95543H3.51037C3.65119 4.95543 3.78244 5.02379 3.86447 5.13727L4.83791 6.48805L6.98576 3.50758C7.06779 3.39274 7.20041 3.32574 7.33986 3.32574H7.98107C8.06994 3.32574 8.12189 3.42692 8.06994 3.49938L5.19064 7.49156C5.1504 7.54773 5.09735 7.5935 5.03589 7.62507C4.97442 7.65665 4.90632 7.67312 4.83722 7.67312C4.76813 7.67312 4.70003 7.65665 4.63856 7.62507Z" fill="black" fill-opacity="0.85"/>
</svg>
