<svg width="12" height="12" viewBox="0 0 12 12" fill="none" xmlns="http://www.w3.org/2000/svg">
<path d="M11.4631 2.75814L9.24004 0.535098C9.1375 0.432559 9.01172 0.357364 8.875 0.316348V0.279434H1.21875C0.976758 0.279434 0.78125 0.474942 0.78125 0.716934V10.7794C0.78125 11.0214 0.976758 11.2169 1.21875 11.2169H11.2812C11.5232 11.2169 11.7188 11.0214 11.7188 10.7794V3.37611C11.7188 3.14369 11.6271 2.92221 11.4631 2.75814ZM4.5 1.26381H8V2.68568H4.5V1.26381ZM10.7344 10.2326H1.76562V1.26381H3.625V3.12318C3.625 3.36518 3.82051 3.56068 4.0625 3.56068H8.4375C8.67949 3.56068 8.875 3.36518 8.875 3.12318V1.56186L10.7344 3.42123V10.2326ZM6.25 4.79115C5.16309 4.79115 4.28125 5.67299 4.28125 6.7599C4.28125 7.84682 5.16309 8.72865 6.25 8.72865C7.33691 8.72865 8.21875 7.84682 8.21875 6.7599C8.21875 5.67299 7.33691 4.79115 6.25 4.79115ZM6.25 7.85365C5.6457 7.85365 5.15625 7.3642 5.15625 6.7599C5.15625 6.15561 5.6457 5.66615 6.25 5.66615C6.8543 5.66615 7.34375 6.15561 7.34375 6.7599C7.34375 7.3642 6.8543 7.85365 6.25 7.85365Z" fill="white"/>
</svg>
